<svg width="23" height="21" viewBox="0 0 23 21" fill="none" xmlns="http://www.w3.org/2000/svg">
<path d="M21.5748 15.4479C18.7933 14.9895 17.526 12.1765 17.3906 11.8571C17.388 11.8509 17.3774 11.8284 17.3745 11.8218C17.235 11.5386 17.2005 11.3087 17.2733 11.1391C17.4193 10.7936 18.0381 10.5979 18.4343 10.4725C18.5457 10.4365 18.6502 10.4033 18.7334 10.3702C19.5346 10.0539 19.9367 9.64957 19.9282 9.16769C19.9205 8.78548 19.6206 8.43452 19.1766 8.27743C19.0236 8.21341 18.8415 8.1785 18.6642 8.1785C18.5417 8.1785 18.3596 8.19578 18.1856 8.27709C17.8464 8.43565 17.5447 8.521 17.3166 8.53092C17.2151 8.52687 17.1382 8.50997 17.0827 8.49117C17.0897 8.37089 17.0978 8.24726 17.1055 8.12107L17.1095 8.05671C17.2041 6.55619 17.3214 4.68884 16.8219 3.5698C15.3445 0.257495 12.2092 0 11.2832 0L10.8513 0.00405232C9.92723 0.00405232 6.79776 0.261202 5.32185 3.57165C4.82118 4.69328 4.93964 6.55985 5.03457 8.06003C5.04375 8.20755 5.05298 8.35137 5.06104 8.49156C4.99776 8.51324 4.90653 8.53238 4.78255 8.53238C4.51695 8.53238 4.19876 8.44629 3.83711 8.27709C3.31436 8.03209 2.35866 8.35947 2.2295 9.03785C2.15923 9.40497 2.30714 9.93436 3.40998 10.3703C3.49568 10.4041 3.6035 10.4387 3.73593 10.4806C4.10564 10.598 4.7244 10.7941 4.8708 11.1388C4.94326 11.3091 4.90869 11.539 4.75604 11.8506C4.70159 11.9775 3.39161 14.9598 0.498297 15.4362C0.198123 15.4855 -0.0160032 15.7519 0.000938932 16.055C0.00572412 16.1392 0.0252098 16.2238 0.0612496 16.3092C0.304432 16.8779 1.23034 17.2726 2.97332 17.5493C3.01156 17.6482 3.05609 17.8513 3.08148 17.969C3.11825 18.1372 3.15688 18.3108 3.20952 18.4907C3.2625 18.6728 3.41994 18.9781 3.87535 18.9781C4.02947 18.9781 4.2079 18.9431 4.40176 18.9056C4.6806 18.8509 5.06173 18.7765 5.53443 18.7765C5.79671 18.7765 6.06968 18.8001 6.34597 18.8457C6.86726 18.9321 7.32452 19.2555 7.85499 19.6304C8.63597 20.1826 9.34598 20.6049 10.7659 20.6049C10.8034 20.6049 10.8406 20.6037 10.877 20.6012C10.9296 20.6038 10.9826 20.6049 11.0363 20.6049C12.2801 20.6049 13.3749 20.2764 14.2909 19.6293C14.797 19.271 15.2753 18.9325 15.7969 18.8457C16.0739 18.8001 16.3472 18.7766 16.6095 18.7766C17.0627 18.7766 17.4243 18.8347 17.747 18.898C17.9651 18.941 18.1358 18.9616 18.2933 18.9616C18.6111 18.9616 18.8451 18.7869 18.9345 18.4819C18.986 18.3046 19.0246 18.1361 19.0621 17.964C19.082 17.8723 19.1298 17.6531 19.1703 17.5475C20.8883 17.2742 21.7656 16.8949 22.0084 16.3276C22.0448 16.246 22.0662 16.1595 22.072 16.0676C22.0883 15.7643 21.8749 15.498 21.5748 15.4479Z" fill="white"/>
</svg>
