<svg width="20" height="20" viewBox="0 0 20 20" fill="none" xmlns="http://www.w3.org/2000/svg">
<path d="M18.9466 6.30557C18.9365 5.54819 18.7947 4.79834 18.5276 4.08957C18.2959 3.49172 17.9421 2.94877 17.4888 2.4954C17.0354 2.04203 16.4924 1.68822 15.8946 1.45657C15.1949 1.19392 14.4558 1.05191 13.7086 1.03657C12.7466 0.993567 12.4416 0.981567 9.99958 0.981567C7.55758 0.981567 7.24458 0.981567 6.28958 1.03657C5.54274 1.05202 4.80393 1.19404 4.10458 1.45657C3.50664 1.68806 2.9636 2.04181 2.51022 2.4952C2.05683 2.94859 1.70307 3.49163 1.47158 4.08957C1.20841 4.7887 1.06671 5.52768 1.05258 6.27457C1.00958 7.23757 0.996582 7.54257 0.996582 9.98457C0.996582 12.4266 0.996582 12.7386 1.05258 13.6946C1.06758 14.4426 1.20858 15.1806 1.47158 15.8816C1.70346 16.4793 2.05748 17.0221 2.51102 17.4753C2.96456 17.9285 3.50765 18.2821 4.10558 18.5136C4.80302 18.7868 5.54195 18.9389 6.29058 18.9636C7.25358 19.0066 7.55858 19.0196 10.0006 19.0196C12.4426 19.0196 12.7556 19.0196 13.7106 18.9636C14.4577 18.9489 15.1969 18.8072 15.8966 18.5446C16.4943 18.3126 17.0371 17.9587 17.4904 17.5054C17.9438 17.0521 18.2977 16.5093 18.5296 15.9116C18.7926 15.2116 18.9336 14.4736 18.9486 13.7246C18.9916 12.7626 19.0046 12.4576 19.0046 10.0146C19.0026 7.57257 19.0026 7.26257 18.9466 6.30557ZM9.99358 14.6026C7.43958 14.6026 5.37058 12.5336 5.37058 9.97957C5.37058 7.42557 7.43958 5.35657 9.99358 5.35657C11.2197 5.35657 12.3956 5.84363 13.2625 6.71061C14.1295 7.57759 14.6166 8.75347 14.6166 9.97957C14.6166 11.2057 14.1295 12.3815 13.2625 13.2485C12.3956 14.1155 11.2197 14.6026 9.99358 14.6026ZM14.8006 6.26357C14.659 6.2637 14.5187 6.23591 14.3879 6.18178C14.257 6.12765 14.1382 6.04825 14.038 5.94812C13.9379 5.84799 13.8585 5.7291 13.8044 5.59826C13.7502 5.46741 13.7225 5.32717 13.7226 5.18557C13.7226 5.04407 13.7505 4.90395 13.8046 4.77323C13.8588 4.6425 13.9381 4.52372 14.0382 4.42366C14.1382 4.3236 14.257 4.24424 14.3877 4.19009C14.5185 4.13594 14.6586 4.10807 14.8001 4.10807C14.9416 4.10807 15.0817 4.13594 15.2124 4.19009C15.3432 4.24424 15.4619 4.3236 15.562 4.42366C15.662 4.52372 15.7414 4.6425 15.7956 4.77323C15.8497 4.90395 15.8776 5.04407 15.8776 5.18557C15.8776 5.78157 15.3956 6.26357 14.8006 6.26357Z" fill="white"/>
<path d="M9.99372 12.9825C11.6522 12.9825 12.9967 11.638 12.9967 9.9795C12.9967 8.32099 11.6522 6.9765 9.99372 6.9765C8.33521 6.9765 6.99072 8.32099 6.99072 9.9795C6.99072 11.638 8.33521 12.9825 9.99372 12.9825Z" fill="white"/>
</svg>
