<svg width="20" height="24" viewBox="0 0 20 24" fill="none" xmlns="http://www.w3.org/2000/svg">
<path d="M17.3208 5.562C17.169 5.48345 17.0211 5.39734 16.8778 5.304C16.4615 5.02872 16.0798 4.7044 15.7408 4.338C14.8918 3.367 14.5748 2.382 14.4588 1.693H14.4628C14.3658 1.12 14.4058 0.75 14.4128 0.75H10.5478V15.693C10.5478 15.893 10.5478 16.092 10.5398 16.288C10.5398 16.312 10.5368 16.334 10.5358 16.361C10.5358 16.371 10.5358 16.383 10.5328 16.394V16.403C10.4922 16.939 10.3205 17.4569 10.0328 17.9109C9.7451 18.365 9.35018 18.7414 8.88283 19.007C8.39526 19.2844 7.84378 19.4298 7.28283 19.429C5.48283 19.429 4.02283 17.961 4.02283 16.148C4.02283 14.334 5.48283 12.866 7.28283 12.866C7.62383 12.866 7.96283 12.92 8.28683 13.026L8.29183 9.09C7.30784 8.96305 6.30822 9.04147 5.35607 9.3203C4.40391 9.59913 3.5199 10.0723 2.75983 10.71C2.09368 11.2885 1.53362 11.9789 1.10483 12.75C0.94183 13.031 0.32583 14.162 0.25183 15.996C0.20483 17.036 0.51783 18.116 0.66683 18.561V18.571C0.75983 18.833 1.12383 19.729 1.71583 20.484C2.19323 21.09 2.75728 21.6224 3.38983 22.064V22.054L3.39883 22.064C5.26883 23.334 7.34383 23.251 7.34383 23.251C7.70283 23.236 8.90583 23.251 10.2718 22.604C11.7868 21.886 12.6488 20.817 12.6488 20.817C13.1999 20.1781 13.6382 19.45 13.9448 18.664C14.2948 17.744 14.4108 16.642 14.4108 16.202V8.273C14.4578 8.301 15.0828 8.714 15.0828 8.714C15.0828 8.714 15.9828 9.291 17.3858 9.666C18.3918 9.933 19.7488 9.99 19.7488 9.99V6.153C19.2738 6.205 18.3088 6.055 17.3198 5.563L17.3208 5.562Z" fill="white"/>
</svg>
