<svg width="22" height="18" viewBox="0 0 22 18" fill="none" xmlns="http://www.w3.org/2000/svg">
<path d="M6.92 17.9407C8.60914 17.9513 10.2836 17.6264 11.8462 16.9849C13.4088 16.3434 14.8285 15.398 16.0229 14.2036C17.2174 13.0092 18.1627 11.5895 18.8043 10.0269C19.4458 8.46426 19.7706 6.78982 19.76 5.10068V4.51068C20.6356 3.86917 21.3935 3.08085 22 2.18068C21.1755 2.54127 20.3031 2.78043 19.41 2.89068C20.3569 2.32646 21.0674 1.43834 21.41 0.390676C20.5275 0.920117 19.5598 1.29231 18.55 1.49068C17.8699 0.766043 16.97 0.285732 15.9895 0.124062C15.0089 -0.0376076 14.0024 0.128376 13.1257 0.59633C12.249 1.06428 11.551 1.80812 11.1396 2.71275C10.7282 3.61738 10.6264 4.63237 10.85 5.60068C9.05603 5.51262 7.30071 5.0477 5.69836 4.23618C4.096 3.42467 2.68254 2.28476 1.55 0.890676C0.978923 1.88185 0.805827 3.053 1.06576 4.167C1.32569 5.281 1.99923 6.2546 2.95 6.89068C2.24861 6.86363 1.56345 6.67178 0.95 6.33068V6.38068C0.943767 7.41651 1.29272 8.42319 1.9387 9.23295C2.58469 10.0427 3.48867 10.6066 4.5 10.8307C3.84764 11.0061 3.16429 11.0335 2.5 10.9107C2.79278 11.7941 3.35168 12.5652 4.10005 13.1185C4.84841 13.6717 5.74959 13.9798 6.68 14.0007C5.08921 15.2812 3.11209 15.9861 1.07 16.0007C0.711953 15.9903 0.354747 15.9603 0 15.9107C2.06696 17.2276 4.4692 17.9219 6.92 17.9107" fill="white"/>
</svg>
