<svg width="21" height="15" viewBox="0 0 21 15" fill="none" xmlns="http://www.w3.org/2000/svg">
<path d="M20.5617 2.34315C20.4422 1.88942 20.2078 1.47565 19.882 1.14324C19.5563 0.810829 19.1505 0.571446 18.7055 0.449045C17.0672 9.11154e-08 10.5 0 10.5 0C10.5 0 3.93281 -9.11154e-08 2.29453 0.446656C1.84927 0.56866 1.44334 0.807911 1.11751 1.14038C0.791688 1.47285 0.557436 1.88684 0.438281 2.34076C-8.9407e-08 4.01274 0 7.5 0 7.5C0 7.5 -8.9407e-08 10.9873 0.438281 12.6568C0.679687 13.5788 1.39219 14.3049 2.29453 14.551C3.93281 15 10.5 15 10.5 15C10.5 15 17.0672 15 18.7055 14.551C19.6102 14.3049 20.3203 13.5788 20.5617 12.6568C21 10.9873 21 7.5 21 7.5C21 7.5 21 4.01274 20.5617 2.34315ZM8.41406 10.7006V4.29936L13.8516 7.47611L8.41406 10.7006Z" fill="white"/>
</svg>
